<?xml version="1.0" standalone="no"?><!DOCTYPE svg PUBLIC "-//W3C//DTD SVG 1.1//EN" "http://www.w3.org/Graphics/SVG/1.1/DTD/svg11.dtd"><svg t="1507726510882" class="icon" style="" viewBox="0 0 1463 1024" version="1.1" xmlns="http://www.w3.org/2000/svg" p-id="6971" xmlns:xlink="http://www.w3.org/1999/xlink" width="171.4453125" height="120"><defs><style type="text/css"></style></defs><path d="M595.966672 183.796167 595.966672 44.843831C595.966672 6.112641 548.702125-14.3155 519.029311 11.528138L31.688996 436.405625C-10.135479 472.806118-10.629998 536.215561 30.629302 573.301476L518.464137 1011.957687C547.995638 1038.555355 595.966672 1018.195822 595.966672 979.190419L595.966672 802.809348C595.966672 749.682547 640.829062 706.427032 695.65307 706.221355 1086.556798 704.78183 1280.631052 810.281403 1391.55073 908.720276 1424.544083 937.991462 1476.400832 904.333022 1459.58624 864.162307 1304.510586 492.960047 985.739977 311.369083 692.685811 284.70288 639.486745 279.904343 595.966672 235.551978 595.966672 183.796167" p-id="6972" fill="#8a8a8a"></path></svg>