<?xml version="1.0" standalone="no"?><!DOCTYPE svg PUBLIC "-//W3C//DTD SVG 1.1//EN" "http://www.w3.org/Graphics/SVG/1.1/DTD/svg11.dtd"><svg t="1500599406233" class="icon" style="" viewBox="0 0 1024 1024" version="1.1" xmlns="http://www.w3.org/2000/svg" p-id="4492" xmlns:xlink="http://www.w3.org/1999/xlink" width="120" height="120"><defs><style type="text/css"></style></defs><path d="M853.28 260.416q13.664 13.664 23.392 37.056t9.76 42.912l0 561.664q0 19.488-13.664 33.152t-33.152 13.664l-655.264 0q-19.488 0-33.152-13.664t-13.664-33.152l0-780.096q0-19.488 13.664-33.152t33.152-13.664l436.832 0q19.488 0 42.912 9.76t37.056 23.392zM636.8 141.472l0 183.328 183.328 0q-4.864-14.144-10.72-20l-152.608-152.608q-5.856-5.856-20-10.72zM824.032 886.432l0-499.264-202.816 0q-19.488 0-33.152-13.664t-13.664-33.152l0-202.816-374.432 0 0 748.864 624.064 0zM761.632 668l0 156-499.264 0 0-93.6 93.6-93.6 62.4 62.4 187.232-187.232zM355.968 574.4q-39.008 0-66.304-27.296t-27.296-66.304 27.296-66.304 66.304-27.296 66.304 27.296 27.296 66.304-27.296 66.304-66.304 27.296z" p-id="4493" fill="#62d35f"></path></svg>