<?xml version="1.0" standalone="no"?><!DOCTYPE svg PUBLIC "-//W3C//DTD SVG 1.1//EN" "http://www.w3.org/Graphics/SVG/1.1/DTD/svg11.dtd"><svg t="1500571141044" class="icon" style="" viewBox="0 0 1024 1024" version="1.1" xmlns="http://www.w3.org/2000/svg" p-id="54367" xmlns:xlink="http://www.w3.org/1999/xlink" width="120" height="120"><defs><style type="text/css"></style></defs><path d="M906.24 316.8v-3.84a28.16 28.16 0 0 0-7.04-12.8l-256-256a28.16 28.16 0 0 0-12.8-7.04h-428.8a84.48 84.48 0 0 0-85.12 83.84v782.08a84.48 84.48 0 0 0 84.48 84.48h621.44a84.48 84.48 0 0 0 84.48-84.48V320a27.52 27.52 0 0 0-0.64-3.2z m-95.36-24.32h-159.36v-160z m11.52 640h-620.8a28.16 28.16 0 0 1-28.16-28.16V120.96a28.16 28.16 0 0 1 28.16-28.16H595.2V320a28.16 28.16 0 0 0 28.16 28.16h227.84v554.88a28.16 28.16 0 0 1-28.8 28.16z" fill="#049CFF" p-id="54368"></path><path d="M612.48 680.32a184.32 184.32 0 0 0-4.48 32.64 208 208 0 0 0-5.12-31.36l-51.2-204.8H484.48L428.8 678.4a174.72 174.72 0 0 0-5.76 34.56 222.08 222.08 0 0 0-3.84-33.28l-46.08-202.88h-70.4L384 775.68h72.32l51.84-192A206.72 206.72 0 0 0 512 547.84a161.92 161.92 0 0 0 5.12 33.28l51.2 192H640l80-298.88h-64z" fill="#049CFF" p-id="54369"></path></svg>