<?xml version="1.0" standalone="no"?><!DOCTYPE svg PUBLIC "-//W3C//DTD SVG 1.1//EN" "http://www.w3.org/Graphics/SVG/1.1/DTD/svg11.dtd"><svg t="1505125442588" class="icon" style="" viewBox="0 0 1024 1024" version="1.1" xmlns="http://www.w3.org/2000/svg" p-id="8592" xmlns:xlink="http://www.w3.org/1999/xlink" width="120" height="120"><defs><style type="text/css"></style></defs><path d="M745.862777 483.868132h-42.965035v79.792208h41.942058c26.597403 0 43.988012-13.298701 43.988012-38.873127 0-27.62038-18.413586-40.919081-42.965035-40.919081zM493.187453 493.074925l-29.666334 102.297702h62.401598l-29.666333-102.297702z" fill="#E45F3D" p-id="8593"></path><path d="M710.058581 0h-506.373626C153.559081 0 112.64 39.896104 112.64 90.021978v843.956044c0 49.102897 40.919081 90.021978 91.044955 90.021978h615.832168c50.125874 0 91.044955-39.896104 91.044955-90.021978v-736.543457L710.058581 0z m-364.17982 614.809191c0 61.378621-34.781219 91.044955-86.953047 91.044955-57.286713 0-84.907093-39.896104-84.907093-83.884116h52.171829c1.022977 20.45954 14.321678 33.758242 32.735264 33.758242 21.482517 0 33.758242-12.275724 33.758242-38.873127V439.88012h54.217782v174.929071z m208.687313 91.044955l-18.413586-64.447553h-82.861139l-19.436564 64.447553h-54.217782l83.884116-265.974026h63.424575l83.884116 265.974026h-56.263736z m235.284715 0l-43.988012-97.182817h-41.942058V705.854146h-53.194805V439.88012h103.320679c61.378621 0 90.021978 36.827173 90.021978 85.93007 0 43.988012-27.62038 67.516484-46.033966 74.677322l51.148852 105.366634h-59.332668z m-79.792208-510.465535V51.148851l147.308692 145.262737h-147.308692z" fill="#E45F3D" p-id="8594"></path></svg>