<?xml version="1.0" standalone="no"?><!DOCTYPE svg PUBLIC "-//W3C//DTD SVG 1.1//EN" "http://www.w3.org/Graphics/SVG/1.1/DTD/svg11.dtd"><svg t="1505125384627" class="icon" style="" viewBox="0 0 1024 1024" version="1.1" xmlns="http://www.w3.org/2000/svg" p-id="7710" xmlns:xlink="http://www.w3.org/1999/xlink" width="120" height="120"><defs><style type="text/css"></style></defs><path d="M110.041791 24.453731C126.853731 9.170149 148.250746 0 171.176119 0h512L939.940299 256.764179v683.17612c0 22.925373-9.170149 44.322388-24.453732 59.60597-16.81194 15.283582-38.208955 24.453731-61.134328 24.453731H171.176119C123.797015 1024 84.059701 985.791045 84.059701 939.940299V85.58806c0-22.925373 9.170149-44.322388 25.98209-61.134329z" fill="#24C4B0" p-id="7711"></path><path d="M939.940299 256.764179H770.292537c-47.379104 0-87.116418-38.208955-87.116418-85.58806V0L939.940299 256.764179z" fill="" p-id="7712"></path><path d="M709.158209 505.886567c1.528358-25.98209-4.585075-35.152239-32.095522-33.62388-13.755224 0-27.510448 4.585075-42.79403 6.113432l-4.585075-18.340298c25.98209-9.170149 51.964179-16.81194 79.474627-9.170149 18.340299 4.585075 32.095522 16.81194 32.095522 35.152238 1.528358 38.208955 0 76.41791 0 116.155224-10.698507-1.528358-24.453731 9.170149-27.510447-9.170149-15.283582 4.585075-32.095522 10.698507-48.907463 12.226866-22.925373 1.528358-38.208955-10.698507-42.79403-30.567164-4.585075-22.925373 4.585075-45.850746 24.453731-53.492538 19.868657-6.113433 39.737313-9.170149 62.662687-15.283582z m0 24.453732c-15.283582 1.528358-27.510448 3.056716-39.737313 6.113432s-18.340299 16.81194-15.283583 29.038806c3.056716 12.226866 15.283582 18.340299 27.510448 15.283582 22.925373-6.113433 25.98209-10.698507 25.98209-33.62388 1.528358-4.585075 1.528358-9.170149 1.528358-16.81194z m-250.650746 71.832835H435.58209c-1.528358-3.056716-3.056716-7.641791-4.585075-12.226865h-4.585075c-13.755224 10.698507-27.510448 15.283582-45.850746 15.283582-21.397015-1.528358-35.152239-10.698507-39.737313-27.510448-6.113433-19.868657 0-42.79403 18.340298-51.964179 13.755224-7.641791 30.567164-9.170149 45.850746-13.755224 6.113433-1.528358 13.755224-1.528358 19.868657-1.528358 3.056716-27.510448-4.585075-38.208955-30.567164-36.680597-7.641791 0-13.755224 1.528358-21.397015 3.056716-7.641791 1.528358-13.755224 3.056716-19.868657 4.585075-7.641791-19.868657-7.641791-21.397015 10.698508-25.98209 18.340299-4.585075 38.208955-6.113433 58.077612-4.585074 22.925373 1.528358 35.152239 13.755224 36.680597 36.680597 1.528358 35.152239 1.528358 68.776119 1.528358 103.928358 0 3.056716 0 6.113433-1.528358 10.698507z m-32.095523-71.832835c-13.755224 1.528358-25.98209 3.056716-38.208955 6.113432s-18.340299 15.283582-15.283582 29.038806c3.056716 12.226866 12.226866 18.340299 24.453731 15.283582 32.095522-7.641791 33.623881-12.226866 29.038806-50.43582z m50.435821-77.946269c1.528358-1.528358 1.528358-1.528358 3.056717-1.528358 32.095522-1.528358 32.095522-1.528358 41.265671 30.567164 7.641791 27.510448 16.81194 55.020896 24.453732 81.002985h4.585074c9.170149-36.680597 18.340299-74.889552 27.510448-113.098508h33.623881c-7.641791 29.038806-13.755224 58.077612-22.925374 85.58806-6.113433 18.340299-13.755224 35.152239-19.868656 53.492537-3.056716 10.698507-9.170149 13.755224-19.868657 12.226866h-4.585075c-16.81194 3.056716-22.925373-3.056716-27.510447-19.868657-12.226866-41.265672-25.98209-84.059701-39.737314-128.382089zM268.991045 657.19403c-4.585075-6.113433-10.698507-12.226866-16.811941-19.868657 30.567164-13.755224 33.623881-41.265672 33.623881-70.304477v-152.835821V397.373134h33.623881V577.719403c0 42.79403-12.226866 59.60597-50.435821 79.474627z" fill="#FFFFFF" p-id="7713"></path></svg>