<?xml version="1.0" standalone="no"?><!DOCTYPE svg PUBLIC "-//W3C//DTD SVG 1.1//EN" "http://www.w3.org/Graphics/SVG/1.1/DTD/svg11.dtd"><svg t="1505047270834" class="icon" style="" viewBox="0 0 1024 1024" version="1.1" xmlns="http://www.w3.org/2000/svg" p-id="10090" xmlns:xlink="http://www.w3.org/1999/xlink" width="16" height="16"><defs><style type="text/css"></style></defs><path d="M984.234401 154.631491H243.976176a38.292041 38.292041 0 0 0-38.271575 38.292041v25.521206a38.292041 38.292041 0 0 0 38.292041 38.292041H984.234401a38.292041 38.292041 0 0 0 38.292041-38.292041v-25.521206a38.292041 38.292041 0 0 0-38.292041-38.292041z m0 306.315865H243.976176a38.292041 38.292041 0 0 0-38.271575 38.292041v25.521206a38.292041 38.292041 0 0 0 38.292041 38.292041H984.234401a38.292041 38.292041 0 0 0 38.292041-38.292041v-25.521206a38.292041 38.292041 0 0 0-38.292041-38.292041z m0 306.315865H243.976176a38.292041 38.292041 0 0 0-38.271575 38.292041v25.521206a38.292041 38.292041 0 0 0 38.292041 38.292041H984.234401a38.292041 38.292041 0 0 0 38.292041-38.292041v-25.521206a38.292041 38.292041 0 0 0-38.292041-38.292041zM52.526202 154.631491A51.052644 51.052644 0 1 0 103.578846 205.684135a51.052644 51.052644 0 0 0-51.052644-51.052644z m0 306.315865a51.052644 51.052644 0 1 0 51.052644 51.052644 51.052644 51.052644 0 0 0-51.052644-51.052644z m0 306.315865a51.052644 51.052644 0 1 0 51.052644 51.052644 51.052644 51.052644 0 0 0-51.052644-51.052644z" p-id="10091" fill="#707070"></path></svg>