<?xml version="1.0" standalone="no"?><!DOCTYPE svg PUBLIC "-//W3C//DTD SVG 1.1//EN" "http://www.w3.org/Graphics/SVG/1.1/DTD/svg11.dtd"><svg t="1500571682778" class="icon" style="" viewBox="0 0 1024 1024" version="1.1" xmlns="http://www.w3.org/2000/svg" p-id="61788" xmlns:xlink="http://www.w3.org/1999/xlink" width="120" height="120"><defs><style type="text/css"></style></defs><path d="M906.24 316.8v-3.84a28.16 28.16 0 0 0-7.04-12.8l-256-256a28.16 28.16 0 0 0-12.8-7.04h-428.8a84.48 84.48 0 0 0-85.12 83.84v782.08a84.48 84.48 0 0 0 84.48 84.48h621.44a84.48 84.48 0 0 0 84.48-84.48V320a27.52 27.52 0 0 0-0.64-3.2z m-95.36-24.32h-159.36v-160z m11.52 640h-620.8a28.16 28.16 0 0 1-28.16-28.16V120.96a28.16 28.16 0 0 1 28.16-28.16H595.2V320a28.16 28.16 0 0 0 28.16 28.16h227.84v554.88a28.16 28.16 0 0 1-28.8 28.16z" fill="#EC6D6E" p-id="61789"></path><path d="M343.68 529.92H270.72v210.56h44.8v-72.96h23.68a87.04 87.04 0 0 0 59.52-18.56 64 64 0 0 0 23.68-51.84q-0.64-67.2-78.72-67.2z m-8.32 103.04h-19.2V565.12h19.84q39.04 0 39.04 33.92t-39.68 33.92zM526.72 529.92H453.76v210.56h72.96a113.92 113.92 0 0 0 81.28-29.44 103.04 103.04 0 0 0 32-78.08q0-102.4-113.28-103.04zM576 685.44a64 64 0 0 1-50.56 19.2H499.2V567.04h24.32a70.4 70.4 0 0 1 52.48 17.28 64 64 0 0 1 19.2 49.28 71.68 71.68 0 0 1-19.2 51.84zM674.56 741.12h44.8v-83.2h69.76v-36.48h-69.76v-54.4h75.52v-36.48h-120.32v210.56z" fill="#EC6D6E" p-id="61790"></path></svg>