<?xml version="1.0" standalone="no"?><!DOCTYPE svg PUBLIC "-//W3C//DTD SVG 1.1//EN" "http://www.w3.org/Graphics/SVG/1.1/DTD/svg11.dtd"><svg t="1500571246196" class="icon" style="" viewBox="0 0 1024 1024" version="1.1" xmlns="http://www.w3.org/2000/svg" p-id="55117" xmlns:xlink="http://www.w3.org/1999/xlink" width="120" height="120"><defs><style type="text/css"></style></defs><path d="M906.24 316.8v-3.84a28.16 28.16 0 0 0-7.04-12.8l-256-256a28.16 28.16 0 0 0-12.8-7.04h-428.8a84.48 84.48 0 0 0-85.12 83.84v782.08a84.48 84.48 0 0 0 84.48 84.48h621.44a84.48 84.48 0 0 0 84.48-84.48V320a27.52 27.52 0 0 0-0.64-3.2z m-95.36-24.32h-159.36v-160z m11.52 640h-620.8a28.16 28.16 0 0 1-28.16-28.16V120.96a28.16 28.16 0 0 1 28.16-28.16H595.2V320a28.16 28.16 0 0 0 28.16 28.16h227.84v554.88a28.16 28.16 0 0 1-28.8 28.16z" fill="#D65928" p-id="55118"></path><path d="M519.68 476.8H416.64v298.88h64V672H512a123.52 123.52 0 0 0 84.48-26.24 90.88 90.88 0 0 0 33.92-73.6q0.64-95.36-110.72-95.36z m-11.52 145.92h-27.52v-96h28.16q55.68 0 55.68 48t-56.32 48z" fill="#D65928" p-id="55119"></path></svg>