<?xml version="1.0" standalone="no"?><!DOCTYPE svg PUBLIC "-//W3C//DTD SVG 1.1//EN" "http://www.w3.org/Graphics/SVG/1.1/DTD/svg11.dtd"><svg t="1524898587630" class="icon" style="" viewBox="0 0 1024 1024" version="1.1" xmlns="http://www.w3.org/2000/svg" p-id="17630" xmlns:xlink="http://www.w3.org/1999/xlink" width="200" height="200"><defs><style type="text/css"></style></defs><path d="M659.453818 62.136176H218.246141c-41.383526 0.022513-74.915223 33.577746-74.892711 74.972528V887.680265c0.011256 40.993646 33.249265 74.207096 74.236772 74.183559h588.987418c40.931225-0.021489 74.089415-33.213449 74.066903-74.14979V287.072181L659.453818 62.136176zM530.03219 654.020574a31.010271 31.010271 0 0 1-21.450544 8.246825c-8.245801 0-15.667841-2.8847-21.447475-8.655124-5.770424-5.779633-8.655124-12.805654-8.655124-21.030989 0-8.67559 2.8847-15.690354 8.655124-21.041222 5.779633-5.78168 13.201673-8.258081 21.447475-8.258081 8.667404 0 16.089443 2.476401 21.869076 8.258081 5.759167 5.350868 8.655124 12.375865 8.655124 21.041222 0 8.655124-3.314489 15.669888-9.073656 21.439288z m59.382459-160.837128c-3.700275 4.53734-15.250332 15.239076-34.641985 32.163537-7.839549 6.606465-13.608949 14.028505-17.320481 21.448498-4.53734 8.247848-6.605442 17.321504-6.605441 27.208688v7.024997h-44.121893v-7.024997c0-15.250332 2.478448-28.464285 8.247848-39.164998 5.363148-11.550057 21.020756-28.475542 46.598294-51.135634l7.014764-7.838525c7.419993-9.503445 11.549034-19.390629 11.549034-30.104646 0-14.435781-4.129041-25.567305-11.958357-33.815153-8.246825-8.247848-20.205181-12.375865-35.059493-12.375865-18.552541 0-32.162514 5.779633-40.408315 17.739013-7.42204 9.897418-11.132548 23.914666-11.132549 42.060955h-43.306318c0-30.103622 8.667404-53.611012 25.974581-70.931493 17.331737-17.726733 41.247426-26.394137 71.748091-26.394137 26.414603 0 47.842635 7.014764 64.336284 21.856797 16.505929 14.447037 24.75173 34.244942 24.75173 58.975183 0.002047 20.204158-5.371334 37.106106-15.665794 50.30778z" fill="#CCCCCC" p-id="17631"></path><path d="M880.644523 287.072181h-146.322553c-41.337477-0.057305-74.823126-33.56649-74.868152-74.903967V62.136176l221.190705 224.936005z" fill="#8E8E8E" p-id="17632"></path></svg>