<?xml version="1.0" standalone="no"?><!DOCTYPE svg PUBLIC "-//W3C//DTD SVG 1.1//EN" "http://www.w3.org/Graphics/SVG/1.1/DTD/svg11.dtd"><svg t="1505057186686" class="icon" style="" viewBox="0 0 1341 1024" version="1.1" xmlns="http://www.w3.org/2000/svg" p-id="737" xmlns:xlink="http://www.w3.org/1999/xlink" width="20.953125" height="16"><defs><style type="text/css"></style></defs><path d="M1063.680179 1024l-238.897666 0c-99.258045 0-178.357299-80.763154-178.357299-178.357299L646.425214 512.542687c0-13.50319 11.83929-25.214487 25.214487-25.214487 13.50319 0 25.214487 11.83929 25.214487 25.214487l0 331.50011c0 70.715757 57.212567 127.928324 127.928324 127.928324l238.897666 0c119.416835 0 218.738876-89.210647 225.522469-203.571786 3.3278-60.540368-16.83099-119.480831-58.876467-163.190209-42.045477-43.709377-97.594144-69.051857-159.862408-69.051857l-5.055697 0c-8.383497 0-15.16709-3.3278-20.15879-8.383497-4.9917-6.719597-6.719597-13.50319-4.9917-21.886687 10.047397-48.82907 11.83929-99.258045 1.6639-148.087115-28.67028-163.254205-164.918105-287.854729-329.900206-306.349619C606.043637 39.739056 501.6659 73.33704 420.902746 145.716697 341.803492 216.368458 294.766314 317.354399 294.766314 424.99594c0 11.83929-8.383497 23.550587-21.886687 25.214487-131.256125 18.49489-227.186369 134.583925-222.066676 269.231846 5.055697 137.975721 127.928324 252.400856 272.559646 252.400856l116.089035 0c13.50319 0 25.214487 11.83929 25.214487 25.214487 0 13.50319-11.83929 23.550587-26.878387 23.550587L321.644701 1020.608204c-169.973802 0-314.605124-134.583925-321.324721-299.50203C-6.399616 567.963362 97.914125 435.043337 244.33734 403.109253 250.99294 290.348019 301.549907 184.370378 387.304762 108.66292c90.874548-80.763154 208.691479-119.480831 331.50011-105.977641 186.804792 18.49489 341.611503 161.526308 373.545587 346.6672 8.383497 47.101174 10.111393 92.538448 3.3278 137.975721 65.596064 4.9917 127.928324 35.32588 171.637702 84.090955 52.156871 55.548667 77.371358 126.136432 72.379657 201.907886C1331.184129 912.902666 1210.103394 1024 1063.680179 1024L1063.680179 1024 1063.680179 1024zM1063.680179 1024" p-id="738" fill="#42a6f4"></path><path d="M870.155791 701.011379c-6.719597 0-13.50319-1.6639-18.49489-6.719597l-181.685099-183.476991L488.226706 692.49989c-10.111393 10.047397-25.214487 10.047397-35.32588 0-10.111393-10.111393-10.111393-25.214487 0-35.32588l200.179989-200.179989c10.111393-10.111393 26.878387-10.111393 35.32588 0l200.179989 200.179989c10.111393 10.111393 10.111393 25.214487 0 35.32588C883.65898 697.555587 876.939384 701.011379 870.155791 701.011379L870.155791 701.011379 870.155791 701.011379zM870.155791 701.011379" p-id="739" fill="#42a6f4"></path></svg>