<?xml version="1.0" standalone="no"?><!DOCTYPE svg PUBLIC "-//W3C//DTD SVG 1.1//EN" "http://www.w3.org/Graphics/SVG/1.1/DTD/svg11.dtd"><svg t="1500600966462" class="icon" style="" viewBox="0 0 1024 1024" version="1.1" xmlns="http://www.w3.org/2000/svg" p-id="52040" xmlns:xlink="http://www.w3.org/1999/xlink" width="120" height="120"><defs><style type="text/css"></style></defs><path d="M460.05 192.26c46.25-11.25 96.18-7.17 139.79 12 35.2 15.31 66.19 40.12 88.89 71.08 23.86 32.38 38.5 71.53 41.42 111.67 0.71 15.26 0.96 30.69-1.32 45.83-0.23 0.56-0.68 1.68-0.9 2.23-27.51 0.09-54.91 5.87-80.22 16.64-22.87 9.84-43.64 24.13-61.89 40.98-5.21 6.17-11.33 11.45-16.86 17.31-19.65 19.68-39.41 39.24-58.98 58.99-5.68 5.31-10.68 11.36-16.8 16.19-9.61-35.25-29.03-67.71-55.39-92.99-26.1-25.15-58.98-43.19-94.26-51.56-13.16-2.91-26.62-5.44-40.14-5.05-2.57-0.14-5.13-0.4-7.69-0.53-1.63-10.27-1.98-20.67-1.87-31.05-0.74-34.51 8-68.97 23.74-99.59 15.04-29.25 36.88-54.94 63.19-74.67 23.53-17.69 50.69-30.52 79.29-37.48m37.47 100.4c-28.44 3.49-55.2 18.48-73.17 40.77-15.47 18.96-24.45 43.1-24.99 67.57-0.67 22.18 5.5 44.49 17.47 63.17 15.86 25.07 42 43.38 71.04 49.55 25.41 5.55 52.72 2.03 75.8-10.02 25.25-12.98 45.21-35.89 54.5-62.73 7.54-21.49 8.26-45.29 2.11-67.21-5.17-18.5-15.23-35.58-28.84-49.13-24.15-24.4-59.89-36.57-93.92-31.97z" fill="#2C61E4" p-id="52041"></path><path d="M727.93 435.07c0.22-0.55 0.67-1.67 0.9-2.23-0.03 0.56-0.08 1.66-0.1 2.21 35.86-0.02 71.67 9.59 102.64 27.67 28.39 16.48 52.71 39.91 70.24 67.66 16.12 25.43 26.46 54.49 29.98 84.39 5.28 43.56-3.91 88.77-26.15 126.63-20.22 34.77-50.94 63.31-87.11 80.91-43.8 21.57-95.42 26.46-142.58 13.94-29.85-7.87-57.86-22.64-81.22-42.83-11.18-9.76-17.76-24.53-17.41-39.38 0.12-15.45 7.76-30.55 20.03-39.9 12.64-9.9 30.02-13.23 45.45-8.89 7.73 2.07 14.8 6.15 20.86 11.34 16.89 14.15 38.52 22.49 60.54 23.36 32.14 1.62 64.49-13.29 84.18-38.73 20.02-25.09 26.68-60.03 17.39-90.75-8.86-30.69-33.26-56.25-63.43-66.7-28.5-10.19-61.52-6.73-87.17 9.4-8.97 5.34-16.4 12.78-23.81 20.04-68.44 68.2-136.87 136.42-205.31 204.61-9.55 9.87-19.76 19.14-30.98 27.08-29.76 21.35-65.35 34.44-101.86 37.41-38.44 3.28-77.79-4.44-111.99-22.34-36.57-18.96-67.15-49.25-86.41-85.67-17.27-32.38-25.35-69.52-23.34-106.15 1.81-35.98 13.5-71.38 33.46-101.37 23.11-35.01 57.26-62.6 96.38-77.77 23.7-9.26 49.15-13.98 74.59-13.96 2.56 0.13 5.12 0.39 7.69 0.53 11.83 1.19 22.8 7.52 30.76 16.2 9.38 10.25 14.26 24.41 13.19 38.26-0.93 14.77-8.72 28.85-20.59 37.65-8.07 6.11-17.98 9.58-28.05 10.28-20.26-0.47-40.66 4.98-57.71 15.99-28.06 17.67-46.32 49.85-46.65 83.06-0.96 32.82 15.58 65.35 42.42 84.19 27.17 19.7 64.35 24.31 95.55 12.01 15.65-5.95 29.47-16.1 40.55-28.57 40.38-39.54 80-79.88 120.32-119.47 6.12-4.83 11.12-10.88 16.8-16.19 19.57-19.75 39.33-39.31 58.98-58.99 5.53-5.86 11.65-11.14 16.86-17.31 18.25-16.85 39.02-31.14 61.89-40.98 25.31-10.77 52.71-16.55 80.22-16.64z" fill="#3377F9" p-id="52042"></path><path d="M303.39 435.58c13.52-0.39 26.98 2.14 40.14 5.05 35.28 8.37 68.16 26.41 94.26 51.56 26.36 25.28 45.78 57.74 55.39 92.99-40.32 39.59-79.94 79.93-120.32 119.47 9.61-11.68 17.08-25.23 20.85-39.93 6.07-22.8 3.77-47.72-6.45-69-12.18-25.75-35.74-45.82-63.14-53.66-8.26-2.46-16.83-3.64-25.42-4.09 10.07-0.7 19.98-4.17 28.05-10.28 11.87-8.8 19.66-22.88 20.59-37.65 1.07-13.85-3.81-28.01-13.19-38.26-7.96-8.68-18.93-15.01-30.76-16.2z" fill="#D2402C" p-id="52043"></path></svg>