<?xml version="1.0" standalone="no"?><!DOCTYPE svg PUBLIC "-//W3C//DTD SVG 1.1//EN" "http://www.w3.org/Graphics/SVG/1.1/DTD/svg11.dtd"><svg t="1501061449589" class="icon" style="" viewBox="0 0 1024 1024" version="1.1" xmlns="http://www.w3.org/2000/svg" p-id="7350" xmlns:xlink="http://www.w3.org/1999/xlink" width="120" height="120"><defs><style type="text/css"></style></defs><path d="M526.278703 940.209642c-245.966994 0-445.363324-199.396329-445.363324-445.372533 0-245.966994 199.395306-445.363324 445.363324-445.363324 245.976204 0 445.372533 199.396329 445.372533 445.363324C971.650213 740.812289 772.254907 940.209642 526.278703 940.209642L526.278703 940.209642zM526.278703 82.875522c-227.525993 0-411.960563 184.434569-411.960563 411.961586 0 227.536226 184.434569 411.970796 411.960563 411.970796 227.536226 0 411.969772-184.432523 411.969772-411.970796C938.248476 267.310092 753.813906 82.875522 526.278703 82.875522L526.278703 82.875522zM682.158936 539.373441l-144.746662 144.745638c-18.73469 18.736736-25.976628 7.427156-33.402761 0L359.262852 539.373441c-24.726148-24.726148 4.729721-45.766346 24.465205-26.042119L504.009514 639.58377 504.009514 327.83149c0-22.709211 33.402761-23.220864 33.402761 0l0 311.751257L657.693732 513.331321C676.938028 494.084978 709.342042 512.188288 682.158936 539.373441L682.158936 539.373441z" p-id="7351" fill="#0FACF3"></path></svg>