<?xml version="1.0" standalone="no"?><!DOCTYPE svg PUBLIC "-//W3C//DTD SVG 1.1//EN" "http://www.w3.org/Graphics/SVG/1.1/DTD/svg11.dtd"><svg t="1502018946434" class="icon" style="" viewBox="0 0 1024 1024" version="1.1" xmlns="http://www.w3.org/2000/svg" p-id="12080" xmlns:xlink="http://www.w3.org/1999/xlink" width="200" height="200"><defs><style type="text/css"></style></defs><path d="M512 0C228.953317 0 0 228.953317 0 512s228.953317 512 512 512 512-228.953317 512-512S795.046683 0 512 0z m-27.675676 275.498771h55.351352c6.289926 0 10.063882 5.031941 10.063882 11.321868l-12.579853 330.850123c0 2.515971-2.515971 5.031941-5.031941 5.031941h-40.255528c-2.515971 0-5.031941-2.515971-5.031941-5.031941l-12.579853-330.850123c-1.257985-6.289926 3.773956-11.321867 10.063882-11.321868z m27.675676 473.002458c-21.385749 0-38.997543-17.611794-38.997543-38.997543s17.611794-38.997543 38.997543-38.997543 38.997543 17.611794 38.997543 38.997543-17.611794 38.997543-38.997543 38.997543z" fill="#F76260" p-id="12081"></path></svg>