<?xml version="1.0" standalone="no"?><!DOCTYPE svg PUBLIC "-//W3C//DTD SVG 1.1//EN" "http://www.w3.org/Graphics/SVG/1.1/DTD/svg11.dtd"><svg t="1501243176587" class="icon" style="" viewBox="0 0 1024 1024" version="1.1" xmlns="http://www.w3.org/2000/svg" p-id="16802" xmlns:xlink="http://www.w3.org/1999/xlink" width="120" height="120"><defs><style type="text/css"></style></defs><path d="M657.408 500.736 368.64 500.736c-31.744 0-57.344 25.6-57.344 57.344l0 135.168c0 31.744 25.6 57.344 57.344 57.344l288.768 0c31.744 0 57.344-25.6 57.344-57.344L714.752 558.08C713.728 526.336 688.128 500.736 657.408 500.736z" p-id="16803"></path><path d="M512 28.672C244.736 28.672 28.672 244.736 28.672 512c0 267.264 217.088 483.328 483.328 483.328 267.264 0 483.328-217.088 483.328-483.328C996.352 244.736 779.264 28.672 512 28.672zM764.928 694.272c0 59.392-48.128 108.544-108.544 108.544L368.64 802.816c-59.392 0-108.544-48.128-108.544-108.544L260.096 558.08c0-44.032 25.6-80.896 63.488-98.304l0-89.088c0-104.448 84.992-189.44 189.44-189.44S701.44 266.24 701.44 370.688c0 14.336-11.264 25.6-25.6 25.6-14.336 0-25.6-11.264-25.6-25.6 0-75.776-61.44-138.24-138.24-138.24-75.776 0-138.24 61.44-138.24 138.24l0 78.848 281.6 0c59.392 0 108.544 48.128 108.544 108.544L763.904 694.272z" p-id="16804"></path><path d="M657.408 500.736 368.64 500.736c-31.744 0-57.344 25.6-57.344 57.344l0 135.168c0 31.744 25.6 57.344 57.344 57.344l288.768 0c31.744 0 57.344-25.6 57.344-57.344L714.752 558.08C713.728 526.336 688.128 500.736 657.408 500.736z" p-id="16805"></path></svg>