<?xml version="1.0" standalone="no"?><!DOCTYPE svg PUBLIC "-//W3C//DTD SVG 1.1//EN" "http://www.w3.org/Graphics/SVG/1.1/DTD/svg11.dtd"><svg t="1502018008844" class="icon" style="" viewBox="0 0 1024 1024" version="1.1" xmlns="http://www.w3.org/2000/svg" p-id="7721" xmlns:xlink="http://www.w3.org/1999/xlink" width="200" height="200"><defs><style type="text/css"></style></defs><path d="M512 512m-503.606557 0a503.606557 503.606557 0 1 0 1007.213114 0 503.606557 503.606557 0 1 0-1007.213114 0Z" fill="#33CC66" p-id="7722"></path><path d="M817.68918 307.888262a20.312131 20.312131 0 0 0-28.739147 0.067148L425.421639 672.868721 235.075148 481.800393a20.354098 20.354098 0 0 0-28.755935-0.058754 20.312131 20.312131 0 0 0-0.058754 28.755935L411.026885 716.061377a20.328918 20.328918 0 0 0 28.789508 0l377.923148-379.41718a20.328918 20.328918 0 0 0-0.050361-28.755935z" fill="#FFFFFF" p-id="7723"></path><path d="M425.421639 730.422557a28.588066 28.588066 0 0 1-20.328918-8.427016L200.309508 516.414951c-5.422164-5.422164-8.393443-12.648918-8.385049-20.328918s3.021639-14.889967 8.468984-20.303738c10.869508-10.802361 29.821902-10.768787 40.624262 0.092328l184.395541 185.092197 357.585836-358.945574c10.793967-10.869508 29.729574-10.919869 40.607475-0.092328a28.554492 28.554492 0 0 1 8.452197 20.312131 28.520918 28.520918 0 0 1-8.385049 20.312131L445.758951 721.987148a28.923803 28.923803 0 0 1-20.337312 8.435409zM220.680393 484.217705c-3.189508 0-6.185967 1.225443-8.435409 3.474885a11.834754 11.834754 0 0 0-3.516853 8.427017c0 3.189508 1.225443 6.185967 3.483279 8.443803l204.766426 205.563803c4.498885 4.482098 12.439082 4.482098 16.896 0l377.914754-379.408787c2.26623-2.26623 3.500066-5.254295 3.491672-8.43541 0-3.189508-1.250623-6.194361-3.516852-8.443803-4.498885-4.498885-12.363541-4.465311-16.862426 0.033574l-369.479345 370.889443-196.297442-197.04446a11.834754 11.834754 0 0 0-8.443804-3.500065z" fill="#ffffff" p-id="7724"></path></svg>