<?xml version="1.0" standalone="no"?><!DOCTYPE svg PUBLIC "-//W3C//DTD SVG 1.1//EN" "http://www.w3.org/Graphics/SVG/1.1/DTD/svg11.dtd"><svg t="1500601210616" class="icon" style="" viewBox="0 0 1024 1024" version="1.1" xmlns="http://www.w3.org/2000/svg" p-id="54412" xmlns:xlink="http://www.w3.org/1999/xlink" width="120" height="120"><defs><style type="text/css"></style></defs><path d="M1013.62176 812.63616L889.73824 100.56704c-6.71744-44.1344-43.63264-77.96736-89.0112-79.81568H223.37536c-46.12096 1.88416-83.71712 36.74624-89.50784 81.95072L10.37824 812.66688C5.72416 826.92096 2.56 841.87648 2.56 857.69216c0 80.384 65.17248 145.55648 145.55136 145.55648h727.77216c80.384 0 145.55648-65.17248 145.55648-145.55648 0-15.85152-3.16416-30.7712-7.81824-45.056zM209.34144 93.53216h605.32224l109.12256 627.31264c-15.06304-5.26336-31.02208-8.704-47.8976-8.704H148.11136c-16.87552 0-32.83456 3.44064-47.8976 8.704L209.34144 93.53216z m666.54208 836.93056H148.11136c-40.1152 0-72.77568-32.65536-72.77568-72.77568s32.65536-72.77568 72.77568-72.77568h727.77216c40.12032 0 72.7808 32.65536 72.7808 72.77568s-32.66048 72.77568-72.7808 72.77568z" fill="#5B9FC9" p-id="54413"></path><path d="M402.83136 530.19648h218.33216c40.19712 0 72.7808-32.5888 72.7808-72.77568 0-40.192-32.58368-72.77568-72.7808-72.77568 0-60.26752-48.86016-109.16864-109.16352-109.16864-60.30848 0-109.16864 48.896-109.16864 109.16864-40.192 0-72.77568 32.58368-72.77568 72.77568 0 40.18688 32.5888 72.77568 72.77568 72.77568zM839.49568 821.2992a36.37248 36.37248 0 0 0-36.38784 36.38784 36.36736 36.36736 0 0 0 36.38784 36.38784 36.36224 36.36224 0 0 0 36.38784-36.38784 36.36736 36.36736 0 0 0-36.38784-36.38784z" fill="#5B9FC9" p-id="54414"></path></svg>